<svg version="1.1" xmlns="http://www.w3.org/2000/svg" xmlns:xlink="http://www.w3.org/1999/xlink" width="780" height="802" viewBox="0,0,780,802"><defs><linearGradient x1="75.00001" y1="180" x2="705.00001" y2="180" gradientUnits="userSpaceOnUse" id="color-1"><stop offset="0" stop-color="#fff700"/><stop offset="1" stop-color="#ff0000"/></linearGradient></defs><g transform="translate(-0.09115,397.87841)"><g stroke-miterlimit="10"><path d="M0.09115,404.12159v-802h780v802z" fill-opacity="0.61176" fill="#000000" stroke="none" stroke-width="0" stroke-linecap="butt"/><path d="M75.00001,303.60422c0,-60.47463 0,-224.48034 0,-253.53658c0,-8.6294 8.21108,-16.06764 18.95581,-16.06764c52.52449,0 467.57797,0 581.95122,0c18.46505,0 29.09297,10.35536 29.09297,27.04325c0,61.45651 0,208.79666 0,241.09756c0,12.25155 -8.26317,23.8592 -22.87346,23.8592c-103.99438,0 -529.56127,0 -585.7317,0c-12.0112,0 -21.39483,-8.44183 -21.39483,-22.39578z" fill="url(#color-1)" stroke="#ffffff" stroke-width="1.5" stroke-linecap="butt"/><text transform="translate(356.31002,67.51659) scale(0.5,0.5)" font-size="40" xml:space="preserve" fill="#ffffff" stroke="none" stroke-width="1" stroke-linecap="butt" font-family="Sans Serif" font-weight="normal" text-anchor="start"><tspan x="0" dy="0">Credits</tspan></text><path d="M703.96561,82.12159h-627.74893" fill="none" stroke="#ffffff" stroke-width="1.5" stroke-linecap="round"/><text transform="translate(85.20905,106.27319) scale(0.35574,0.35574)" font-size="40" xml:space="preserve" fill="#ffffff" stroke="none" stroke-width="1" stroke-linecap="butt" font-family="Sans Serif" font-weight="normal" text-anchor="start"><tspan x="0" dy="0">Admin, Founder: RD Arnav</tspan><tspan x="0" dy="46.150000000000006px"> </tspan><tspan x="0" dy="46.150000000000006px">Some feature projects: griffpatch, JloAu, ggenije, awsome lame, garbo muffin</tspan><tspan x="0" dy="46.150000000000006px"> </tspan><tspan x="0" dy="46.150000000000006px">More ideas: Satvik</tspan><tspan x="0" dy="46.150000000000006px"> </tspan><tspan x="0" dy="46.150000000000006px">Helped and have admin power: Satvik, Lakshay, Hemanshu</tspan><tspan x="0" dy="46.150000000000006px"> </tspan><tspan x="0" dy="46.150000000000006px">My Brother: RD Aarush</tspan></text></g></g></svg>