<svg version="1.1" xmlns="http://www.w3.org/2000/svg" xmlns:xlink="http://www.w3.org/1999/xlink" width="108.77045" height="74.58651" viewBox="0,0,108.77045,74.58651"><defs><linearGradient x1="167.03868" y1="135.59601" x2="167.03868" y2="157.99391" gradientUnits="userSpaceOnUse" id="color-1"><stop offset="0" stop-color="#fb00ff"/><stop offset="1" stop-color="#00ff08"/></linearGradient><linearGradient x1="162.72357" y1="135.41721" x2="162.72357" y2="146.3138" gradientUnits="userSpaceOnUse" id="color-2"><stop offset="0" stop-color="#f900ff"/><stop offset="1" stop-color="#000000"/></linearGradient></defs><g transform="translate(-148.026,-91.10485)"><g stroke-miterlimit="10"><path d="M149.026,164.69136v-35.90909h35.90909v35.90909z" fill-opacity="0.58824" fill="#000000" stroke="#ffffff" stroke-width="2"/><text transform="translate(181.14702,112.35485) scale(0.5,0.5)" font-size="40" xml:space="preserve" fill="#ffffff" stroke="none" stroke-width="1" font-family="Sans Serif" font-weight="normal" text-anchor="start"><tspan x="0" dy="0"> </tspan></text><path d="M158.02862,157.13475c-0.30988,-4.0549 -0.5055,-21.06903 0.34233,-21.52432c1.47132,-0.39172 9.51609,7.2865 16.28401,12.35433c6.65509,4.98334 -8.76295,-1.35405 -10.32677,-0.71737c-1.67672,0.68264 -5.96706,14.23836 -6.29957,9.88736z" fill="#000000" stroke="url(#color-1)" stroke-width="2"/><path d="M157.97048,157.07661c-0.30988,-4.0549 -0.5055,-21.06903 0.34233,-21.52432c1.47132,-0.39172 9.51609,7.2865 16.28401,12.35433c6.65509,4.98334 -8.76295,-1.35405 -10.32677,-0.71737c-1.67672,0.68264 -5.96706,14.23836 -6.29957,9.88736z" fill="#000000" stroke="#ffffff" stroke-width="0"/><path d="M158.76363,156.34276c-0.13977,-1.82902 -0.25432,-6.51952 -0.2432,-10.8809c0.37314,-0.0702 0.72989,-0.18682 1.06403,-0.34366c1.90863,-0.30736 4.24464,-1.12899 6.15225,-2.30677c0.11149,0.00834 0.22412,0.01259 0.33775,0.01259c0.49576,0 0.97264,-0.08082 1.41819,-0.23001c2.13838,1.78277 4.43507,3.68473 6.59112,5.29918c6.13225,4.59184 -8.0745,-1.24766 -9.51547,-0.661c-1.54499,0.62901 -5.49828,13.11975 -5.80466,9.11057z" fill="#000000" stroke="#ffffff" stroke-width="0"/><path d="M157.98857,146.3138c0,0 -0.54028,-10.57854 0.14365,-10.87903c0.94496,-0.41517 9.52896,6.66913 9.52896,6.66913z" fill="url(#color-2)" stroke="none" stroke-width="0"/><text transform="translate(188.13417,150.82438) scale(0.34063,0.34063)" font-size="40" xml:space="preserve" fill="#ffffff" stroke="none" stroke-width="1" font-family="Sans Serif" font-weight="normal" text-anchor="start"><tspan x="0" dy="0">OG Cursor</tspan></text></g></g></svg>